<?xml version="1.0" encoding="UTF-8"?><svg id="Layer_2" xmlns="http://www.w3.org/2000/svg" viewBox="0 0 1169.65 171.07"><defs><style>.cls-1{fill:#f5c24f;}.cls-2{fill:#f3653c;}</style></defs><g id="Layer_1-2"><path d="m244.98,162.36c-.51,0-1.01-.51-1.01-1.01v-48.6c0-.51.51-1.01,1.01-1.01h37.97c.51,0,1.18.67,1.18,1.18v7.26c0,.51-.67,1.18-1.18,1.18h-27.51v12.66h24.64c.51,0,1.18.67,1.18,1.18v7.26c0,.51-.68,1.18-1.18,1.18h-24.64v17.72c0,.51-.51,1.01-1.01,1.01h-9.45Z"/><path d="m385.37,137.04c0,15.86-12.74,26.16-27.93,26.16s-27.93-10.29-27.93-26.16,12.74-26.16,27.93-26.16,27.93,10.55,27.93,26.16Zm-44.38,0c0,10.21,7.51,16.54,16.45,16.54s16.46-6.33,16.46-16.54-7.51-16.54-16.46-16.54-16.45,6.33-16.45,16.54Z"/><path d="m475.06,112.74c0-.51.51-1.01,1.01-1.01h9.45c.5,0,1.01.51,1.01,1.01v25.4c0,16.37-10.29,25.06-25.82,25.06s-25.82-8.69-25.82-25.06v-25.4c0-.51.51-1.01,1.01-1.01h9.45c.51,0,1.01.51,1.01,1.01v25.31c0,10.46,5.15,15.52,14.35,15.52s14.34-5.06,14.34-15.52v-25.31Z"/><path d="m582.47,162.36l-25.82-26.32c-2.7-2.7-5.74-6.5-5.74-6.5h-.25v31.81c0,.51-.51,1.01-1.01,1.01h-9.45c-.51,0-1.01-.51-1.01-1.01v-48.6c0-.51.51-1.01,1.01-1.01h7.76l25.57,25.99c2.78,2.78,5.91,6.83,5.91,6.83h.34v-31.81c0-.51.51-1.01,1.01-1.01h9.45c.51,0,1.01.51,1.01,1.01v48.6c0,.51-.51,1.01-1.01,1.01h-7.76Z"/><path d="m645.45,162.36c-.51,0-1.01-.51-1.01-1.01v-48.6c0-.51.51-1.01,1.01-1.01h21.34c16.04,0,28.02,9.87,28.02,25.31s-10.12,25.31-27.85,25.31h-21.51Zm10.46-41.01v31.39h11.05c10.72,0,16.37-6.07,16.37-15.69s-6.92-15.69-16.54-15.69h-10.88Z"/><path d="m777.79,153.58h-24.64l-3.63,7.68c-.51,1.01-.76,1.1-1.77,1.1h-10.04c-.5,0-.67-.34-.67-.59s.17-.67.34-1.01l23.79-49.02h8.77l23.8,49.02c.17.34.34.76.34,1.01s-.17.59-.68.59h-10.04c-1.01,0-1.27-.08-1.77-1.1l-3.8-7.68Zm-20.59-8.94h16.71l-4.56-9.37c-1.77-3.63-3.54-9.03-3.54-9.03h-.5s-1.77,5.4-3.54,9.03l-4.56,9.37Z"/><path d="m830.33,121.35c-.51,0-1.18-.67-1.18-1.18v-7.26c0-.51.67-1.18,1.18-1.18h47.92c.51,0,1.18.67,1.18,1.18v7.26c0,.51-.68,1.18-1.18,1.18h-18.22v39.99c0,.51-.51,1.01-1.01,1.01h-9.45c-.5,0-1.01-.51-1.01-1.01v-39.99h-18.23Z"/><path d="m938.44,161.34c0,.51-.51,1.01-1.01,1.01h-9.45c-.5,0-1.01-.51-1.01-1.01v-48.6c0-.51.51-1.01,1.01-1.01h9.45c.51,0,1.01.51,1.01,1.01v48.6Z"/><path d="m1044.51,137.04c0,15.86-12.74,26.16-27.93,26.16s-27.93-10.29-27.93-26.16,12.74-26.16,27.93-26.16,27.93,10.55,27.93,26.16Zm-44.38,0c0,10.21,7.51,16.54,16.45,16.54s16.46-6.33,16.46-16.54-7.51-16.54-16.46-16.54-16.45,6.33-16.45,16.54Z"/><path d="m1138.16,162.36l-25.82-26.32c-2.7-2.7-5.74-6.5-5.74-6.5h-.25v31.81c0,.51-.51,1.01-1.01,1.01h-9.45c-.51,0-1.01-.51-1.01-1.01v-48.6c0-.51.51-1.01,1.01-1.01h7.76l25.56,25.99c2.78,2.78,5.91,6.83,5.91,6.83h.33v-31.81c0-.51.51-1.01,1.01-1.01h9.45c.5,0,1.01.51,1.01,1.01v48.6c0,.51-.51,1.01-1.01,1.01h-7.76Z"/><path d="m315.6,40.19c0,24.56-19.62,39.24-42.66,39.24s-42.66-14.68-42.66-39.24S249.89.94,272.93.94s42.66,14.68,42.66,39.24Zm-62.54,0c0,12.41,9.24,20,19.88,20s19.88-7.59,19.88-20-9.24-20-19.88-20-19.88,7.72-19.88,20Z"/><path d="m336.92,78.17c-.76,0-1.52-.76-1.52-1.52V3.73c0-.76.76-1.52,1.52-1.52h32.91c24.94,0,42.66,14.81,42.66,37.98s-14.94,37.98-42.41,37.98h-33.17Zm21.27-56.72v37.47h11.77c13.29,0,19.75-7.22,19.75-18.74s-8.1-18.74-19.88-18.74h-11.65Z"/><path d="m433.81,78.17c-.76,0-1.52-.76-1.52-1.52V3.73c0-.76.76-1.52,1.52-1.52h32.92c24.94,0,42.66,14.81,42.66,37.98s-14.94,37.98-42.41,37.98h-33.17Zm21.27-56.72v37.47h11.77c13.29,0,19.75-7.22,19.75-18.74s-8.1-18.74-19.87-18.74h-11.65Z"/><path d="m610.43,40.19c0,24.56-19.62,39.24-42.66,39.24s-42.66-14.68-42.66-39.24S544.73.94,567.77.94s42.66,14.68,42.66,39.24Zm-62.54,0c0,12.41,9.24,20,19.88,20s19.88-7.59,19.88-20-9.24-20-19.88-20-19.88,7.72-19.88,20Z"/><path d="m669.79,78.17c-.76,0-1.52-.76-1.52-1.52V3.73c0-.76.76-1.52,1.52-1.52h58.49c.76,0,1.77,1.01,1.77,1.77v15.7c0,.76-1.01,1.77-1.77,1.77h-37.22v13.29h33.93c.76,0,1.77,1.01,1.77,1.77v14.94c0,.76-1.01,1.77-1.77,1.77h-33.93v23.42c0,.76-.76,1.52-1.52,1.52h-19.75Z"/><path d="m798.9,68.04h-33.17l-3.67,8.48c-.63,1.39-1.14,1.65-2.66,1.65h-21.27c-.76,0-1.01-.51-1.01-.89s.25-.89.51-1.52L771.69,2.21h21.27l34.05,73.55c.25.51.51,1.14.51,1.52s-.25.89-1.01.89h-21.27c-1.52,0-2.03-.25-2.66-1.65l-3.67-8.48Zm-25.32-17.98h17.47l-3.42-7.72c-2.03-4.68-4.94-14.43-4.94-14.43h-.76s-2.91,9.75-4.94,14.43l-3.42,7.72Z"/><path d="m934.61,2.21c.76,0,1.52.76,1.52,1.52v72.92c0,.76-.76,1.52-1.52,1.52h-19.75c-.76,0-1.52-.76-1.52-1.52v-38.49h-.25s-1.9,3.92-4.68,7.72l-18.48,25.19-18.36-25.19c-2.78-3.8-4.68-7.72-4.68-7.72h-.38v38.49c0,.76-.76,1.52-1.52,1.52h-19.75c-.76,0-1.52-.76-1.52-1.52V3.73c0-.76.76-1.52,1.52-1.52h16.96c.89,0,1.77.38,2.41,1.27l25.19,34.56h.25l25.19-34.56c.63-.89,1.52-1.27,2.41-1.27h16.97Z"/><path d="m993.57,76.65c0,.76-.76,1.52-1.52,1.52h-19.75c-.76,0-1.52-.76-1.52-1.52V3.73c0-.76.76-1.52,1.52-1.52h19.75c.76,0,1.52.76,1.52,1.52v72.92Z"/><path d="m1050.76,58.92h33.42c.76,0,1.77,1.01,1.77,1.77v15.7c0,.76-1.01,1.77-1.77,1.77h-54.69c-.76,0-1.52-.76-1.52-1.52V3.73c0-.76.76-1.52,1.52-1.52h19.75c.76,0,1.52.76,1.52,1.52v55.2Z"/><path d="m1140.28,76.65c0,.76-.76,1.52-1.52,1.52h-19.75c-.76,0-1.52-.76-1.52-1.52v-27.6l-28.74-44.69c-.51-.76-.63-1.01-.63-1.39s.25-.76.76-.76h23.04c1.52,0,2.28.25,3.04,1.52l10.13,16.71c2.28,3.8,3.55,6.84,3.55,6.84h.51s1.14-2.91,3.55-6.84l10.13-16.71c.76-1.27,1.52-1.52,3.04-1.52h22.91c.51,0,.88.38.88.76,0,.51-.25.76-.63,1.39l-28.74,44.69v27.6Z"/><path class="cls-1" d="m95.69,43.12c0,26.98-22.11,43.11-47.84,43.11S0,70.1,0,43.12,22.25,0,47.84,0s47.84,16.13,47.84,43.12Z"/><path class="cls-2" d="m143.25,84.84c-31.15,0-47.56-16.83-47.56-41.72,0-25.31,19.47-41.72,47.84-41.72h37.13c.83,0,1.67.83,1.67,1.67v80.11c0,.83-.83,1.67-1.67,1.67h-37.41Z"/><path class="cls-2" d="m10.68,169.67c-.83,0-1.67-.84-1.67-1.67v-80.11c0-.84.83-1.67,1.67-1.67h37.13c28.37,0,47.84,16.41,47.84,41.72s-16.41,41.72-47.56,41.72H10.68Z"/><path class="cls-1" d="m191.34,127.95c0,26.98-22.11,43.11-47.84,43.11s-47.84-16.13-47.84-43.11,22.25-43.12,47.84-43.12,47.84,16.13,47.84,43.12Z"/></g></svg>